# xmcd
#
# Track frame offsets:
#	150
#	19280
#	41059
#	57148
#	80338
#	100831
#	118060
#	138912
#	161238
#	182732
#	206104
#
# Disc length: 3106 seconds
#
# Revision: 1
# Processed by: cddbd v1.5.2PL0 Copyright (c) Steve Scherf et al.
# Submitted via: EasyCDDAExtractor 2010.4.0.0
#
DISCID=980c200b
DTITLE=Tom Richardson Project - Guide Your Ship
DYEAR=2011
DGENRE=Blues
TTITLE0=One Heart
TTITLE1=Kates Song
TTITLE2=Guide Your Ship
TTITLE3=Cathedral Caves (Naihehe)
TTITLE4=View From Above
TTITLE5=Learning To Breathe
TTITLE6=Only God Knows (where you have been)
TTITLE7=Stop
TTITLE8=Three Wishes
TTITLE9=Take Your Shoes Off
TTITLE10=Love In A City
EXTD=
EXTT0=
EXTT1=
EXTT2=
EXTT3=
EXTT4=
EXTT5=
EXTT6=
EXTT7=
EXTT8=
EXTT9=
EXTT10=
PLAYORDER=
